<svg version="1.2" xmlns="http://www.w3.org/2000/svg" viewBox="0 0 2000 2000" width="2000" height="2000">
	<title>&lt;Group&gt;</title>
	<style>
		.s0 { fill: #f7dfc0 } 
	</style>
	<g id="&lt;Group&gt;">
		<path id="color_2 2 " fill-rule="evenodd" class="s0" d="m432.5 1566.1c-84.9 38-188.5-62.4-188.5-62.4 54.4-28.3 125.8-8.6 153.3 8.3-3.5-43.7 7-104.3 55.4-141.7 0 0 52.9 132.8-20.2 195.8zm-73.2-130.4c-79.4 26.6-163.3-72.3-163.3-72.3 51.2-20.6 113.4 3.2 136.5 20.8 0.8-39.5 15.6-92.9 62.3-122.1 0 0 35.5 123.5-35.5 173.6zm-56-134.7c-74.9 8.9-130.3-93.6-130.3-93.6 48.9-8.8 99.3 23.6 116.4 43.3 8-34.6 31-78.9 77.6-96.1 0 0 8.2 115.3-63.7 146.4zm-22.7-132.6c-67.8-3.1-101.7-102.2-101.7-102.2 44.8-0.6 84.7 35.5 96.9 55.5 12.3-29.6 39.3-65.5 83.3-74 0 0-10 103.6-78.5 120.7zm-5.1-130.4c-58.1-18.8-63.5-112.8-63.5-112.8 39 10.1 64.8 50.9 70.6 71.1 17.8-22.7 50-47.4 90.1-44.3 0 0-33.7 87.5-97.2 86zm18.1-89.8c0 0-41.7-61.4 33.7-105.7 0 0 34.2 68.2-33.7 105.7zm1254.6 422.1c48.4 37.4 58.9 98 55.4 141.7 27.5-16.9 98.9-36.6 153.2-8.3 0 0-103.6 100.4-188.5 62.4-73-63-20.1-195.8-20.1-195.8zm57.9-108.2c46.7 29.2 61.5 82.6 62.2 122.1 23.1-17.6 85.4-41.4 136.6-20.8 0 0-83.9 98.9-163.3 72.3-71.1-50.1-35.5-173.6-35.5-173.6zm27.7-107.6c46.7 17.3 69.7 61.5 77.7 96.2 17.1-19.7 67.4-52.1 116.4-43.3 0 0-55.4 102.5-130.4 93.6-71.9-31.1-63.7-146.4-63.7-146.5zm8-106.8c43.9 8.5 71 44.4 83.3 74 12.2-20 52.1-56.1 96.8-55.5 0 0-33.8 99.1-101.7 102.2-68.5-17.1-78.4-120.7-78.4-120.7zm-13.7-95.7c40.2-3.1 72.4 21.6 90.2 44.3 5.8-20.2 31.6-61 70.6-71.1 0 0-5.4 94-63.5 112.8-63.6 1.5-97.3-86-97.3-86zm45.5-109.5c75.4 44.3 33.6 105.7 33.6 105.7-67.8-37.5-33.6-105.7-33.6-105.7z"/>
		<path id="color_1 7 " fill-rule="evenodd" class="s0" d="m1652 593.5c-4.8 6.1-15.1 6.3-22.8 0.4l-17.7-13.5c-29.9 10-69.8 9.6-104.8-7.4l-125.4 158.9c50.3 7.1 102 15.7 155.2 26-31.5 281-124.9 698-201 827.5l104.3 159.3c12.4 16.3 9.5 30.8 1 36.8-16.8 12-28.4-1.3-35.6-10.5l-103.7-150.3c-81.9 75.1-278.5 186.2-278.5 186.2v158.9c-0.2 20.6-11.4 29.9-21.8 29.9-10.4 0-21.7-9.3-21.9-29.8l-1.6-159c0 0-196.9-111.4-278.7-186.6l-103.3 150.7c-7.3 9.2-20.8 22.5-35.7 10.5-8-6.5-11.4-20.5 1.1-36.8l104.3-159.1c-89.2-134.8-169.5-546.7-201.1-827.7 0 0 54.2-15.3 152.2-29.8l-122.4-155.1c-34.9 17-74.9 17.4-104.8 7.4l-17.6 13.5c-7.8 5.9-18 5.7-22.8-0.4-4.8-6.2-2.4-16 5.4-21.9l214.5-163.5c7.8-5.9 18-5.7 22.8 0.4 4.8 6.2 2.4 16.1-5.4 22l-17.7 13.4c2.1 31.1-8.6 69.3-34.1 98.4l136.6 178.5c81.4-9.9 184.7-17.8 304.7-17.8v-269.6c-38.8-7.7-70.8-31.5-88.3-57.4h-22.3c-9.8 0-17.8-6.3-17.8-14.1 0-7.7 8-14.1 17.8-13.5h270.7c9.8-0.6 17.8 5.8 17.8 13.5 0 7.8-17.8 14.1-17.8 14.1h-22.3c0 0-49.5 49.7-88.5 57.4v270.1c91 1.5 192.5 7.8 301.8 21.2l139.6-182.4c-25.5-29.1-36.1-67.3-34.1-98.4l-17.6-13.4c-7.8-5.9-10.3-15.8-5.5-22 4.8-6.1 15.1-6.3 22.8-0.4l214.6 163.5c7.7 5.9 10.2 15.7 5.4 21.9zm-183.7 214.6c-189.4-42.8-600.6-81.5-935.7-3.5 38.3 299.1 108.7 639.9 175.8 739.4 37.5 55.8 181.4 150.1 292.3 212.2 110.8-62.1 254.6-156.2 292.3-212.2 66.7-99.1 136.8-437.6 175.3-735.9zm-431.5-489.3h-74.9v-252.5c0-20.6 16.8-37.3 37.5-37.3 17 0 37.4 12.3 37.4 37.3 0 0 0 252.5 0 252.5zm-434.5 541.6c80.7-15.4 214.4-32.5 376.4-32.5 138.2 0 279.1 11.9 419.8 35.5-32.7 253.8-92.3 541.8-149.1 626.1-32.1 47.6-154.5 127.8-248.8 180.6-94.3-52.9-216.7-133.1-248.7-180.6-57-84.7-116.9-374.6-149.6-629.1zm399 739.6c79.5-44.5 182.7-112.1 209.8-152.3 47.9-71.1 98.2-314 125.8-528.1-118.7-19.9-219-25.8-335.6-25.8zm764.8-1141.4c-57.7 74.4-180.8 30.5-180.8 30.5l-59.7-45.5 155.5-200.1c12.7-16.3 36.4-19.4 52.8-6.8 13.6 10.3 18.1 28.1 12.1 43.1 23.1 26.4 78.8 103.4 20.1 178.8zm-33.7-154.2l-127.4 163.9c0 0 95.1 47.1 149.3-22.7 54.2-69.7-21.9-141.2-21.9-141.2zm-1316.8 184.7c0 0-123.1 43.9-180.9-30.5-58.6-75.4-2.9-152.4 20.2-178.8-6-15-1.6-32.8 12-43.1 16.5-12.6 40.1-9.5 52.8 6.8l155.6 200.1zm-19.8-20.7l-127.4-164c0 0-76.1 71.5-21.9 141.3 54.2 69.7 149.3 22.6 149.3 22.7zm0 0q0 0 0 0z"/>
	</g>
</svg>